<svg width="32" height="21" viewBox="0 0 32 21" fill="none" xmlns="http://www.w3.org/2000/svg">
<g clip-path="url(#clip0_3_7)">
<path d="M29.4298 8.23407C29.4249 7.76854 29.2552 7.21087 28.9788 6.74534C28.6297 6.15373 28.0138 5.56212 27.3543 5.17903M29.4298 8.23407L26.8306 4.37404C27.0003 4.57287 27.141 4.82018 27.1846 4.99475C27.1991 5.05294 27.2137 5.10144 27.2137 5.10144M29.4298 8.23407C29.4321 8.32395 29.4322 8.36884 29.4513 8.40306C29.4714 8.43899 29.5126 8.46316 29.5995 8.51533M29.4298 8.23407L29.5995 8.51533M27.3543 5.17903C27.3179 5.15963 27.284 5.14023 27.2585 5.12568C27.2331 5.11113 27.2161 5.10144 27.2137 5.10144M27.3543 5.17903L27.2137 5.4427L27.1326 5.5948L26.9868 5.54639L26.9869 5.54644C26.9885 5.54727 26.9929 5.54962 26.9989 5.55256C27.0027 5.55439 27.0151 5.56044 27.0321 5.56713C27.0405 5.57042 27.0569 5.57663 27.0782 5.58268C27.0872 5.58522 27.0996 5.58846 27.1147 5.59151L27.2137 5.42111L27.3543 5.17903ZM27.2137 5.10144L26.7348 5.24508L26.7348 5.24505L26.7347 5.24499L26.7347 5.24486L26.7346 5.24455L26.7344 5.2437L26.7336 5.24117L26.7312 5.23294L26.7233 5.20528C26.7169 5.18268 26.7083 5.15112 26.6995 5.11602C26.681 5.0419 26.5903 4.86263 26.4503 4.69867L26.4435 4.69073L26.4436 4.69066C26.4195 4.66116 26.3471 4.58486 26.2651 4.49839C26.2507 4.48321 26.236 4.46771 26.2212 4.4521M27.2137 5.10144L26.7348 5.2451L26.8417 5.60144H27.0844C27.0928 5.60605 27.1015 5.61079 27.1104 5.61556C27.7024 5.96116 28.249 6.49251 28.5482 6.99947L28.5489 7.00061C28.7881 7.40361 28.926 7.87599 28.9298 8.23928L28.9297 8.23928L28.9299 8.24722C28.93 8.25122 28.9302 8.25563 28.9303 8.26038C28.9311 8.29514 28.9324 8.3482 28.9373 8.39436C28.9438 8.45599 28.9608 8.55676 29.0234 8.66175C29.0847 8.76455 29.1636 8.82707 29.2118 8.86146C29.2514 8.88972 29.2986 8.91792 29.3324 8.93818L29.3422 8.94407L29.3422 8.94413L29.3493 8.94826C29.457 9.01044 29.4966 9.0371 29.5215 9.05691C29.5413 9.07263 29.5622 9.09209 29.6193 9.158L29.6211 9.16005C29.9769 9.56613 30.2498 10.0875 30.4168 10.6984L30.4167 10.6984L30.4194 10.7077C30.4368 10.7669 30.4614 10.8384 30.5051 10.9131C30.5477 10.9858 30.5959 11.0397 30.6275 11.0742L30.6275 11.0742L30.6317 11.0787C30.9015 11.3657 31.174 12.0215 31.3357 13.0418C31.3959 13.459 31.4377 13.886 31.4565 14.4528L31.4564 14.4528L31.4568 14.4601C31.4587 14.501 31.4607 14.5457 31.4628 14.5918C31.4701 14.7529 31.4782 14.9314 31.4866 15.0265C31.4994 15.2536 31.4995 15.8745 31.4862 16.1283C31.3597 18.0577 30.7253 19.2802 29.7817 19.852L29.7816 19.852L29.778 19.8543C29.5064 20.022 29.1769 20.1478 28.8063 20.2203C28.6214 20.2557 28.3847 20.2743 28.0671 20.2743C28.0673 20.2743 28.0657 20.2743 28.0616 20.2742L28.0462 20.2738L27.9949 20.272C27.9526 20.2702 27.8963 20.2676 27.8276 20.2639C27.6901 20.2567 27.5053 20.2456 27.286 20.2306C26.8474 20.2006 26.2741 20.155 25.6703 20.0927C25.2775 20.0508 24.8697 19.9965 24.4691 19.9432L24.3755 19.9307C23.9493 19.874 23.5305 19.8193 23.1667 19.7866M26.2212 4.4521L11.7235 0.946422C11.6761 0.964851 11.5904 0.998202 11.4989 1.01101C11.3958 1.02544 11.3018 1.01194 11.2603 1.00598C11.2576 1.00559 11.2552 1.00524 11.2529 1.00493C10.9391 0.966057 10.4185 0.956957 10.1036 0.983199L10.1007 0.983444C9.35043 1.04149 8.6805 1.22779 8.01989 1.55346C7.55075 1.78815 7.16863 2.04449 6.83426 2.34847L6.83338 2.34927C6.83069 2.35171 6.82776 2.35436 6.82464 2.35721C6.7876 2.39089 6.72161 2.4509 6.65395 2.4915C6.60317 2.52197 6.52655 2.55826 6.4272 2.5699C6.34199 2.57988 6.2723 2.56754 6.23448 2.55884C5.98445 2.50873 5.64622 2.57015 5.09718 2.93298C4.65774 3.22763 4.13812 3.69414 3.6461 4.25551C3.50962 4.41428 3.23344 4.68649 2.98955 4.91656C2.86383 5.03517 2.73982 5.14904 2.63756 5.23921C2.58667 5.28409 2.53872 5.32527 2.49732 5.35905C2.46653 5.38417 2.41372 5.4267 2.36016 5.45843C2.25715 5.52052 2.11575 5.63265 1.99849 5.74974C1.6575 6.09523 1.3392 6.63288 1.12995 7.26424C1.07284 7.44149 1.02017 7.55173 0.911383 7.72415C0.74503 8.00525 0.627654 8.27065 0.565555 8.50353L0.563956 8.50952L0.563919 8.50951C0.551807 8.55277 0.551065 8.5608 0.550071 8.57156L0.54998 8.57255C0.547267 8.60171 0.546196 8.64335 0.543644 8.76307C0.543663 8.81638 0.543976 8.85424 0.544698 8.88299C0.545446 8.91279 0.546506 8.92652 0.547095 8.93227C0.547104 8.93235 0.547111 8.93242 0.547119 8.9325C0.547329 8.93326 0.547614 8.93427 0.547988 8.93556L0.55438 8.95638L0.555491 8.95989L0.555478 8.9599C0.581318 9.04388 0.600415 9.07607 0.625206 9.10747L0.630712 9.11445L0.635968 9.12161L0.689309 9.19435L0.878794 9.45275L0.723182 9.73285L0.698936 9.77649L0.694891 9.78378L0.690605 9.79092C0.577457 9.9795 0.536747 10.0992 0.508681 10.265M26.2212 4.4521C26.1026 4.32832 25.9905 4.2004 25.8973 4.05484C25.4462 3.37365 24.6634 2.75435 23.586 2.2819C23.0184 2.03743 22.3488 1.8208 21.7413 1.69747L21.7327 1.69572L21.7241 1.69366C21.6077 1.66573 21.4661 1.63126 21.3236 1.5612C20.9337 1.38009 20.3518 1.20458 19.8743 1.12395C19.5 1.06559 18.9928 1.04097 18.7521 1.06059C18.7513 1.06066 18.7505 1.06072 18.7497 1.06079L18.5997 1.07488L18.4536 1.08857L18.3233 1.02117L18.1871 0.950665C18.1864 0.950314 18.1857 0.949963 18.185 0.949613M26.2212 4.4521L18.185 0.949613M23.1667 19.7866C23.167 19.7866 23.1674 19.7867 23.1677 19.7867L23.121 20.2845L23.1656 19.7865C23.166 19.7865 23.1663 19.7866 23.1667 19.7866ZM23.1667 19.7866C22.7166 19.7444 22.5522 19.7531 22.3847 19.792C22.3782 19.7936 22.3725 19.7949 22.3675 19.7961C22.3371 19.8032 22.3301 19.8049 22.3014 19.8069C22.2556 19.8102 22.1649 19.8116 21.9791 19.8001M21.9791 19.8001C21.6091 19.7757 21.337 19.7219 21.0461 19.6644C21.0182 19.6589 20.9901 19.6534 20.9617 19.6478C20.6328 19.5833 20.2804 19.5205 19.7972 19.5178L19.7964 19.5178C19.3015 19.5159 18.8693 19.5214 18.4429 19.5268C17.7746 19.5352 17.1205 19.5435 16.2617 19.5228L16.2606 19.5228C15.7593 19.5118 15.3192 19.5899 14.9848 19.6733C14.8174 19.7151 14.6753 19.7585 14.5671 19.7926C14.5449 19.7996 14.5254 19.8058 14.5077 19.8114C14.48 19.8203 14.4566 19.8277 14.4344 19.8345C14.4032 19.8441 14.3899 19.8477 14.3869 19.8484C14.3862 19.8486 14.3861 19.8487 14.3864 19.8486L14.4894 20.3379L14.3872 19.8484C13.8406 19.9625 13.2467 20.0601 12.8464 20.0967M21.9791 19.8001C21.9795 19.8001 21.9798 19.8001 21.9802 19.8001L21.9475 20.2991M21.9791 19.8001C21.9789 19.8001 21.9787 19.8 21.9785 19.8L21.9475 20.2991M12.8464 20.0967C12.6874 20.1096 12.5886 20.1139 12.3853 20.1097M12.8464 20.0967C12.8472 20.0966 12.848 20.0966 12.8488 20.0965L12.8892 20.5949M12.8464 20.0967C12.8456 20.0968 12.8447 20.0968 12.8439 20.0969L12.8892 20.5949M12.3853 20.1097C12.2043 20.0994 11.8403 20.0949 11.5653 20.0949C11.0476 20.0949 10.9674 20.0864 10.6316 20.0254L10.6316 20.0253L10.6266 20.0245C10.4803 19.9994 10.1615 19.9222 10.0045 19.8742L10.0041 19.8741C9.33841 19.6713 8.6152 19.2821 8.01747 18.7922L8.0147 18.7899C7.86836 18.6717 7.72435 18.5735 7.55 18.4774M12.3853 20.1097C12.3888 20.1099 12.3923 20.1101 12.3957 20.1103L12.3654 20.6094M12.3853 20.1097C12.3822 20.1097 12.3792 20.1096 12.3761 20.1095L12.3654 20.6094M7.55 18.4774C7.21165 18.2786 7.03357 18.142 6.8855 17.9868M7.55 18.4774C7.55196 18.4786 7.55393 18.4798 7.5559 18.4809L7.30289 18.9122M7.55 18.4774C7.54777 18.4762 7.54554 18.475 7.54331 18.4738L7.30289 18.9122M6.8855 17.9868C6.65961 17.7456 6.65175 17.6247 6.67087 17.5117L6.67107 17.5105C6.67142 17.5084 6.67185 17.5059 6.67234 17.5031C6.67848 17.4678 6.69429 17.3769 6.68225 17.2758C6.67082 17.1798 6.63687 17.0957 6.62086 17.0561C6.61978 17.0534 6.61878 17.0509 6.61787 17.0486L6.61789 17.0486L6.61597 17.044C6.60614 17.0201 6.60469 17.0135 6.60373 17.0091L6.6037 17.009C6.60188 17.0008 6.59808 16.9799 6.59407 16.9258L6.59334 16.9159L6.59221 16.906L6.57281 16.7363L6.55203 16.5544L6.41873 16.4289L6.33972 16.3546L5.99361 16.7155M6.8855 17.9868C6.88592 17.9872 6.88634 17.9877 6.88677 17.9881L6.52217 18.3303M6.8855 17.9868C6.88508 17.9863 6.88466 17.9859 6.88424 17.9854L6.52217 18.3303M5.99361 16.7155L6.33629 16.3514L6.33812 16.3531C6.13332 16.1563 6.05684 16.0219 6.02895 15.9339L6.029 15.9339L6.02667 15.9269L6.00243 15.8542L5.90847 15.5723L5.61598 15.5201L5.34674 15.472L5.25653 15.9638L5.34443 15.4716L5.34571 15.4718C4.5695 15.3293 3.79026 15.0592 3.25113 14.7567L3.25114 14.7567L3.24746 14.7547C2.89436 14.5605 2.64152 14.3735 2.40668 14.1429M5.99361 16.7155L6.07604 16.793M5.99361 16.7155C5.756 16.4875 5.61537 16.2839 5.55233 16.085L5.52808 16.0123L5.25653 15.9638C4.43701 15.8135 3.60295 15.5274 3.0065 15.1928M2.40668 14.1429C2.14739 13.8878 1.99771 13.6807 1.85985 13.4011M2.40668 14.1429C2.40659 14.1428 2.40651 14.1427 2.40642 14.1426L2.0561 14.4993L2.40668 14.1429ZM1.85985 13.4011C1.75699 13.1912 1.70801 13.0424 1.66826 12.8476M1.85985 13.4011C1.85978 13.4009 1.8597 13.4008 1.85962 13.4006L1.41113 13.6216L1.86008 13.4015C1.86 13.4014 1.85993 13.4012 1.85985 13.4011ZM1.66826 12.8476L1.66806 12.8466C1.65879 12.8003 1.64837 12.7481 1.63892 12.7049C1.63414 12.6831 1.62854 12.6586 1.62255 12.6356C1.62248 12.6354 1.62237 12.6349 1.62222 12.6343C1.62014 12.6261 1.61092 12.5897 1.59376 12.5476M1.66826 12.8476L1.66865 12.8495L1.17835 12.9476M1.66826 12.8476L1.17835 12.9476M1.59376 12.5476C1.56804 12.4828 1.53628 12.438 1.53097 12.4305C1.53066 12.4301 1.53043 12.4298 1.53031 12.4296C1.51271 12.4039 1.49418 12.3803 1.47946 12.3622C1.44908 12.3249 1.41349 12.2849 1.38089 12.2496L1.37572 12.244L1.37039 12.2386C1.16116 12.0253 0.909051 11.6638 0.743887 11.334M1.59376 12.5476C1.60172 12.5676 1.6091 12.5896 1.61493 12.6129L1.12986 12.7342M1.59376 12.5476C1.58886 12.5355 1.5833 12.523 1.57708 12.5106L1.12986 12.7342M0.743887 11.334C0.532273 10.9016 0.470753 10.537 0.508681 10.265M0.743887 11.334C0.744178 11.3346 0.744471 11.3351 0.744763 11.3357L0.295801 11.5558M0.743887 11.334C0.743596 11.3334 0.743306 11.3328 0.743016 11.3322L0.295801 11.5558M0.508681 10.265C0.508368 10.2668 0.508056 10.2687 0.507745 10.2705L0.014548 10.1883M0.508681 10.265C0.508918 10.2633 0.509158 10.2616 0.509403 10.2599L0.014548 10.1883M0.014548 10.1883C-0.0436424 10.5908 0.0533415 11.0612 0.295801 11.5558M0.014548 10.1883C0.0533415 9.95556 0.116381 9.77614 0.261857 9.53367L0.286103 9.49003L0.232762 9.41729C0.160024 9.32516 0.116381 9.23302 0.0775875 9.10694L0.295801 11.5558M0.295801 11.5558C0.480071 11.9244 0.761324 12.3317 1.01348 12.5887M0.295801 11.5558L1.01348 12.5887M18.185 0.949613C17.739 0.724764 17.2781 0.587058 16.7802 0.530779L16.7773 0.530446C16.2291 0.465169 15.6045 0.509219 15.0699 0.652644L15.0617 0.654865L15.0616 0.654794L14.9647 0.67904L14.8669 0.703474L14.7674 0.688155L14.5782 0.65906L14.5698 0.657757L14.5698 0.657685C14.2674 0.605838 13.9947 0.58779 13.6239 0.596835L13.6224 0.596871C13.1949 0.606062 12.926 0.632834 12.57 0.707554L12.5696 0.707645C12.2618 0.771959 11.9691 0.852619 11.7346 0.942118C11.7344 0.942191 11.7342 0.942263 11.734 0.942336L18.185 0.949613ZM1.01348 12.5887C1.07167 12.6518 1.12501 12.7148 1.12986 12.7342M1.01348 12.5887L1.17835 12.9476M1.12986 12.7342C1.13956 12.7536 1.15896 12.8506 1.17835 12.9476M1.17835 12.9476C1.22685 13.1852 1.28989 13.3743 1.41112 13.6216C1.57599 13.9562 1.76026 14.2084 2.05606 14.4993C2.32761 14.766 2.61857 14.9794 3.0065 15.1928M1.17835 12.9476L3.0065 15.1928M3.0065 15.1928L6.07604 16.793M6.07604 16.793L6.09544 16.9628C6.10514 17.0937 6.11969 17.1519 6.15363 17.2343C6.19242 17.3313 6.19242 17.341 6.17788 17.4283C6.12453 17.7435 6.22637 18.0151 6.52217 18.3303M6.07604 16.793L7.30289 18.9122M6.52217 18.3303C6.71614 18.5339 6.9392 18.6988 7.30289 18.9122M7.30289 18.9122C7.45321 18.9946 7.57444 19.077 7.70052 19.1789M7.30289 18.9122L7.70052 19.1789M7.70052 19.1789C8.34547 19.7075 9.12619 20.1293 9.85842 20.3524C10.033 20.4058 10.3724 20.4882 10.5422 20.5173C10.9155 20.5852 11.0271 20.5949 11.5653 20.5949C11.8466 20.5949 12.2054 20.5997 12.3654 20.6094M7.70052 19.1789L12.8892 20.5949M12.3654 20.6094C12.5934 20.6143 12.7097 20.6094 12.8892 20.5949M21.9475 20.2991C21.5433 20.2726 21.2417 20.2129 20.9507 20.1552C20.6027 20.0864 20.2697 20.0204 19.7944 20.0178M21.9475 20.2991L19.7944 20.0178M19.7944 20.0178C19.3175 20.0159 18.8903 20.0213 18.4648 20.0266C17.7871 20.0351 17.1135 20.0435 16.2497 20.0227L19.7944 20.0178ZM29.5995 8.51533C29.8177 8.64141 29.871 8.68505 29.9971 8.83053C30.4093 9.30091 30.7148 9.89252 30.8991 10.5666M29.5995 8.51533L30.8991 10.5666M30.8991 10.5666C30.9233 10.649 30.9427 10.6781 30.9961 10.7363L30.8991 10.5666Z" fill="white" stroke="black"/>
<path d="M18.6429 3.69015C18.6635 3.6232 18.6707 3.55285 18.6641 3.48312C18.6575 3.41339 18.6372 3.34564 18.6044 3.28374C18.5716 3.22184 18.527 3.16701 18.473 3.12237C18.419 3.07773 18.3568 3.04415 18.2899 3.02356C18.2229 3.00297 18.1526 2.99577 18.0828 3.00237C18.0131 3.00897 17.9454 3.02924 17.8835 3.06202C17.8216 3.0948 17.7667 3.13945 17.7221 3.19343C17.6774 3.2474 17.6439 3.30964 17.6233 3.37659L13.3571 17.2416C13.3155 17.3768 13.3294 17.523 13.3956 17.648C13.4618 17.773 13.5749 17.8666 13.7101 17.9082C13.8453 17.9498 13.9915 17.9359 14.1165 17.8697C14.2416 17.8035 14.3351 17.6904 14.3767 17.5552L18.6429 3.69015ZM12.6447 6.35543C12.6943 6.40497 12.7337 6.46382 12.7606 6.5286C12.7875 6.59339 12.8013 6.66284 12.8013 6.73299C12.8013 6.80313 12.7875 6.87259 12.7606 6.93737C12.7337 7.00216 12.6943 7.06101 12.6447 7.11054L9.28827 10.4659L12.6447 13.8212C12.7448 13.9213 12.8011 14.0572 12.8011 14.1988C12.8011 14.3404 12.7448 14.4762 12.6447 14.5763C12.5445 14.6765 12.4087 14.7327 12.2671 14.7327C12.1255 14.7327 11.9897 14.6765 11.8896 14.5763L8.15667 10.8434C8.10701 10.7939 8.06761 10.735 8.04072 10.6703C8.01384 10.6055 8 10.536 8 10.4659C8 10.3957 8.01384 10.3263 8.04072 10.2615C8.06761 10.1967 8.10701 10.1379 8.15667 10.0883L11.8896 6.35543C11.9391 6.30577 11.9979 6.26637 12.0627 6.23949C12.1275 6.2126 12.197 6.19876 12.2671 6.19876C12.3373 6.19876 12.4067 6.2126 12.4715 6.23949C12.5363 6.26637 12.5951 6.30577 12.6447 6.35543ZM19.3553 6.35543C19.3057 6.40497 19.2663 6.46382 19.2394 6.5286C19.2125 6.59339 19.1987 6.66284 19.1987 6.73299C19.1987 6.80313 19.2125 6.87259 19.2394 6.93737C19.2663 7.00216 19.3057 7.06101 19.3553 7.11054L22.7117 10.4659L19.3553 13.8212C19.3058 13.8708 19.2664 13.9297 19.2396 13.9944C19.2128 14.0592 19.1989 14.1286 19.1989 14.1988C19.1989 14.2689 19.2128 14.3383 19.2396 14.4031C19.2664 14.4679 19.3058 14.5267 19.3553 14.5763C19.4049 14.6259 19.4638 14.6652 19.5286 14.6921C19.5933 14.7189 19.6628 14.7327 19.7329 14.7327C19.803 14.7327 19.8724 14.7189 19.9372 14.6921C20.002 14.6652 20.0609 14.6259 20.1104 14.5763L23.8433 10.8434C23.893 10.7939 23.9324 10.735 23.9593 10.6703C23.9862 10.6055 24 10.536 24 10.4659C24 10.3957 23.9862 10.3263 23.9593 10.2615C23.9324 10.1967 23.893 10.1379 23.8433 10.0883L20.1104 6.35543C20.0609 6.30577 20.0021 6.26637 19.9373 6.23949C19.8725 6.2126 19.803 6.19876 19.7329 6.19876C19.6627 6.19876 19.5933 6.2126 19.5285 6.23949C19.4637 6.26637 19.4049 6.30577 19.3553 6.35543Z" fill="black"/>
</g>
<defs>
<clipPath id="clip0_3_7">
<rect width="32" height="20.7741" fill="white"/>
</clipPath>
</defs>
</svg>
