<svg width="32" height="21" viewBox="0 0 32 21" fill="none" xmlns="http://www.w3.org/2000/svg">
<g clip-path="url(#clip0_3_7)">
<mask id="path-1-inside-1_3_7" fill="white">
<path fill-rule="evenodd" clip-rule="evenodd" d="M27.3543 5.17903C28.0138 5.56212 28.6297 6.15373 28.9788 6.74534C29.2552 7.21087 29.4249 7.76854 29.4298 8.23407C29.4346 8.41834 29.4298 8.41349 29.5995 8.51533C29.8177 8.64141 29.871 8.68505 29.9971 8.83053C30.4093 9.30091 30.7148 9.89252 30.8991 10.5666C30.9233 10.649 30.9427 10.6781 30.9961 10.7363C31.3743 11.1388 31.6652 11.9244 31.8301 12.967C31.8932 13.4034 31.9368 13.8495 31.9562 14.4363C31.9659 14.64 31.9756 14.8873 31.9853 14.9891C31.9998 15.2316 31.9998 15.8862 31.9853 16.1578C31.8544 18.1654 31.1852 19.5862 30.0408 20.2797C29.711 20.4833 29.3231 20.6288 28.9012 20.7113C28.6733 20.7549 28.4017 20.7743 28.0671 20.7743C27.9362 20.7743 26.8403 20.7161 25.6183 20.59C24.7551 20.4979 23.8241 20.3476 23.121 20.2845C22.2433 20.2021 22.7282 20.3476 21.9475 20.2991C21.0601 20.2409 20.6673 20.0227 19.7944 20.0178C18.5579 20.013 17.6559 20.0566 16.2497 20.0227C15.3623 20.0033 14.6737 20.2991 14.4894 20.3379C13.9317 20.4542 13.3159 20.5561 12.8892 20.5949C12.7097 20.6094 12.5934 20.6143 12.3654 20.6094C12.2054 20.5997 11.8466 20.5949 11.5653 20.5949C11.0271 20.5949 10.9155 20.5852 10.5422 20.5173C10.3724 20.4882 10.033 20.4058 9.85842 20.3524C9.12619 20.1293 8.34547 19.7075 7.70052 19.1789C7.57444 19.077 7.45321 18.9946 7.30289 18.9122C6.9392 18.6988 6.71614 18.5339 6.52217 18.3303C6.22637 18.0151 6.12453 17.7435 6.17788 17.4283C6.19242 17.341 6.19242 17.3313 6.15363 17.2343C6.11969 17.1519 6.10514 17.0937 6.09544 16.9628L6.07604 16.793L5.99361 16.7155C5.756 16.4875 5.61537 16.2839 5.55233 16.085L5.52808 16.0123L5.25653 15.9638C4.43701 15.8135 3.60295 15.5274 3.0065 15.1928C2.61857 14.9794 2.32761 14.766 2.05606 14.4993C1.76026 14.2084 1.57599 13.9562 1.41112 13.6216C1.28989 13.3743 1.22685 13.1852 1.17836 12.9476C1.15896 12.8506 1.13956 12.7536 1.12986 12.7342C1.12501 12.7148 1.07167 12.6518 1.01348 12.5887C0.761324 12.3317 0.480071 11.9244 0.295801 11.5558C0.0533416 11.0612 -0.0436424 10.5908 0.014548 10.1883C0.0533415 9.95556 0.116381 9.77614 0.261857 9.53367L0.286103 9.49003L0.232762 9.41729C0.160024 9.32516 0.116381 9.23302 0.0775875 9.10694C0.0484923 9.0148 0.0436432 8.98571 0.0436432 8.75779C0.0484924 8.52987 0.0484923 8.49593 0.0824367 8.3747C0.160024 8.08374 0.300651 7.77339 0.48492 7.46303C0.577055 7.31756 0.610999 7.24482 0.654642 7.10904C0.882554 6.42044 1.23655 5.80943 1.64388 5.39724C1.7845 5.25661 1.95908 5.11598 2.10455 5.0287C2.23063 4.95596 3.0356 4.19947 3.26836 3.92791C3.78237 3.34115 4.33518 2.84167 4.8201 2.51677C5.4214 2.11913 5.90147 1.9785 6.34275 2.07064C6.38154 2.08034 6.39609 2.07064 6.49792 1.9785C6.87131 1.63905 7.29319 1.3578 7.79751 1.10563C8.51519 0.751636 9.24742 0.547967 10.0621 0.484926C10.4112 0.45583 10.9689 0.465529 11.318 0.509172C11.4247 0.52372 11.4296 0.52372 11.5556 0.475227C11.8223 0.373393 12.1424 0.286106 12.4673 0.218216C12.8601 0.135778 13.1607 0.106683 13.6117 0.096984C14.0093 0.0872855 14.3148 0.106683 14.6543 0.164874L14.8434 0.19397L14.9404 0.169723C15.5368 0.00969706 16.2254 -0.0387957 16.8364 0.0339434C17.3941 0.096984 17.9129 0.252161 18.4124 0.504323L18.553 0.577062L18.7082 0.562514C18.9991 0.538268 19.552 0.567364 19.9544 0.630404C20.4733 0.717691 21.1037 0.906813 21.5401 1.11048C21.6274 1.15413 21.7195 1.17837 21.8408 1.20747C22.4857 1.3384 23.1889 1.56631 23.7853 1.82333C24.9249 2.3228 25.7977 2.99685 26.3166 3.78243C26.3845 3.88912 26.4718 3.99095 26.5833 4.10733C26.6706 4.19947 26.787 4.3207 26.8306 4.37405C27.0003 4.57287 27.1409 4.82018 27.1846 4.99475C27.1991 5.05294 27.2137 5.10144 27.2137 5.10144C27.2185 5.10144 27.2816 5.14023 27.3543 5.17903Z"/>
</mask>
<path d="M27.3543 5.17903L27.8566 4.31433L27.8409 4.30521L27.8249 4.29668L27.3543 5.17903ZM28.9788 6.74534L28.1176 7.25359L28.1189 7.25587L28.9788 6.74534ZM29.4298 8.23407L28.4298 8.24448L28.4299 8.25243L28.4301 8.26037L29.4298 8.23407ZM29.5995 8.51533L29.085 9.37282L29.0921 9.37706L29.0992 9.38119L29.5995 8.51533ZM29.9971 8.83053L29.2414 9.48546L29.245 9.48958L29.9971 8.83053ZM30.8991 10.5666L29.9345 10.8303L29.937 10.8395L29.9397 10.8487L30.8991 10.5666ZM30.9961 10.7363L30.2588 11.4121L30.2673 11.4211L30.9961 10.7363ZM31.8301 12.967L32.8199 12.824L32.8178 12.8108L31.8301 12.967ZM31.9562 14.4363L30.9567 14.4693L30.957 14.4766L30.9573 14.4839L31.9562 14.4363ZM31.9853 14.9891L32.9835 14.9292L32.9825 14.9117L32.9808 14.8943L31.9853 14.9891ZM31.9853 16.1578L32.9832 16.2229L32.9839 16.2113L31.9853 16.1578ZM30.0408 20.2797L29.5225 19.4244L29.5153 19.4289L30.0408 20.2797ZM28.9012 20.7113L29.0893 21.6934L29.093 21.6927L28.9012 20.7113ZM25.6183 20.59L25.5122 21.5844L25.5157 21.5847L25.6183 20.59ZM23.121 20.2845L23.0275 21.2801L23.0317 21.2805L23.121 20.2845ZM21.9475 20.2991L21.882 21.2969L21.8855 21.2971L21.9475 20.2991ZM19.7944 20.0178L19.8 19.0178L19.7983 19.0178L19.7944 20.0178ZM16.2497 20.0227L16.2738 19.0229L16.2715 19.0229L16.2497 20.0227ZM14.4894 20.3379L14.6937 21.3168L14.6954 21.3164L14.4894 20.3379ZM12.8892 20.5949L12.97 21.5916L12.9797 21.5908L12.8892 20.5949ZM12.3654 20.6094L12.305 21.6076L12.3245 21.6088L12.3442 21.6092L12.3654 20.6094ZM10.5422 20.5173L10.721 19.5334L10.7111 19.5317L10.5422 20.5173ZM9.85842 20.3524L10.1506 19.3961L10.1498 19.3958L9.85842 20.3524ZM7.70052 19.1789L8.33442 18.4054L8.32887 18.4009L7.70052 19.1789ZM7.30289 18.9122L6.79687 19.7747L6.80936 19.782L6.82205 19.789L7.30289 18.9122ZM6.52217 18.3303L5.79296 19.0146L5.79803 19.0199L6.52217 18.3303ZM6.17788 17.4283L7.16386 17.5952L7.16427 17.5927L6.17788 17.4283ZM6.15363 17.2343L7.08216 16.8629L7.07831 16.8536L6.15363 17.2343ZM6.09544 16.9628L7.09271 16.8889L7.09124 16.869L7.08897 16.8492L6.09544 16.9628ZM6.07604 16.793L7.06958 16.6795L7.02801 16.3158L6.76141 16.0648L6.07604 16.793ZM5.99361 16.7155L5.30134 17.4372L5.30824 17.4436L5.99361 16.7155ZM5.55233 16.085L6.50556 15.7828L6.50334 15.7758L6.50101 15.7688L5.55233 16.085ZM5.52808 16.0123L6.47677 15.6961L6.28886 15.1323L5.70388 15.0279L5.52808 16.0123ZM5.25653 15.9638L5.0761 16.9474L5.08074 16.9482L5.25653 15.9638ZM3.0065 15.1928L3.49578 14.3206L3.48843 14.3166L3.0065 15.1928ZM2.05606 14.4993L1.35481 15.2123L1.35535 15.2128L2.05606 14.4993ZM1.41112 13.6216L0.513191 14.0618L0.514101 14.0636L1.41112 13.6216ZM1.17836 12.9476L0.197766 13.1437L0.19855 13.1475L1.17836 12.9476ZM1.12986 12.7342L0.15972 12.9767L0.186343 13.0832L0.235433 13.1814L1.12986 12.7342ZM1.01348 12.5887L1.74829 11.9104L1.73796 11.8993L1.7273 11.8884L1.01348 12.5887ZM0.295801 11.5558L-0.60215 11.996L-0.598629 12.003L0.295801 11.5558ZM0.014548 10.1883L-0.971846 10.0239L-0.973619 10.0346L-0.975162 10.0452L0.014548 10.1883ZM0.261857 9.53367L1.11935 10.0482L1.12793 10.0339L1.13602 10.0193L0.261857 9.53367ZM0.286103 9.49003L1.16026 9.97567L1.47148 9.41546L1.09251 8.89867L0.286103 9.49003ZM0.232762 9.41729L1.03917 8.82593L1.02866 8.8116L1.01765 8.79765L0.232762 9.41729ZM0.0775875 9.10694L1.03339 8.81285L1.03117 8.80581L0.0775875 9.10694ZM0.0436432 8.75779L-0.956131 8.73652L-0.956357 8.74715V8.75779H0.0436432ZM0.0824367 8.3747L1.04548 8.64434L1.04867 8.63236L0.0824367 8.3747ZM0.48492 7.46303L-0.359903 6.92799L-0.367597 6.94014L-0.374938 6.9525L0.48492 7.46303ZM0.654642 7.10904L-0.294745 6.79481L-0.297388 6.80303L0.654642 7.10904ZM1.64388 5.39724L0.936753 4.69013L0.932594 4.69434L1.64388 5.39724ZM2.10455 5.0287L1.60482 4.16252L1.5974 4.1668L1.59005 4.17121L2.10455 5.0287ZM3.26836 3.92791L2.51612 3.26893L2.5091 3.27713L3.26836 3.92791ZM4.8201 2.51677L4.26849 1.68265L4.26348 1.68601L4.8201 2.51677ZM6.34275 2.07064L6.58529 1.1005L6.5663 1.09575L6.54714 1.09175L6.34275 2.07064ZM6.49792 1.9785L7.16884 2.72004L7.1706 2.71844L6.49792 1.9785ZM7.79751 1.10563L7.35514 0.208785L7.35029 0.211209L7.79751 1.10563ZM10.0621 0.484926L10.1392 1.48196L10.1451 1.48147L10.0621 0.484926ZM11.318 0.509172L11.4531 -0.481719L11.4421 -0.483105L11.318 0.509172ZM11.5556 0.475227L11.1989 -0.458992L11.1966 -0.458116L11.5556 0.475227ZM12.4673 0.218216L12.6718 1.19707L12.6727 1.19689L12.4673 0.218216ZM13.6117 0.096984L13.6332 1.09676L13.6361 1.09669L13.6117 0.096984ZM14.6543 0.164874L14.4853 1.1505L14.4937 1.15194L14.5022 1.15325L14.6543 0.164874ZM14.8434 0.19397L14.6913 1.18234L14.8905 1.21298L15.0859 1.16411L14.8434 0.19397ZM14.9404 0.169723L15.1829 1.13986L15.1912 1.13779L15.1995 1.13556L14.9404 0.169723ZM16.8364 0.0339434L16.7182 1.02695L16.7241 1.02761L16.8364 0.0339434ZM18.4124 0.504323L18.8718 -0.383934L18.8631 -0.388361L18.4124 0.504323ZM18.553 0.577062L18.0936 1.46528L18.3542 1.60009L18.6464 1.5727L18.553 0.577062ZM18.7082 0.562514L18.6251 -0.434084L18.6149 -0.43312L18.7082 0.562514ZM19.9544 0.630404L20.1203 -0.355802L20.1092 -0.357551L19.9544 0.630404ZM21.5401 1.11048L21.9873 0.216058L21.9753 0.210016L21.963 0.204302L21.5401 1.11048ZM21.8408 1.20747L21.6074 2.17985L21.6245 2.18397L21.6418 2.18748L21.8408 1.20747ZM23.7853 1.82333L24.1868 0.907422L24.181 0.904958L23.7853 1.82333ZM26.3166 3.78243L27.1603 3.24556L27.1557 3.2384L27.151 3.23131L26.3166 3.78243ZM26.5833 4.10733L27.3093 3.41958L27.3053 3.41544L26.5833 4.10733ZM26.8306 4.37405L26.0566 5.00728L26.0633 5.01536L26.07 5.0233L26.8306 4.37405ZM27.2137 5.10144L26.2559 5.38878L26.4697 6.10144H27.2137V5.10144ZM26.852 6.04372C27.382 6.35161 27.8659 6.8272 28.1176 7.25359L29.84 6.23709C29.3934 5.48026 28.6456 4.77263 27.8566 4.31433L26.852 6.04372ZM28.1189 7.25587C28.3211 7.59634 28.4271 7.98343 28.4298 8.24448L30.4297 8.22365C30.4227 7.55364 30.1893 6.8254 29.8387 6.23481L28.1189 7.25587ZM28.4301 8.26037C28.4307 8.28087 28.4318 8.3694 28.4401 8.44728C28.4503 8.54349 28.479 8.72518 28.594 8.91788C28.7063 9.10621 28.8485 9.21655 28.9216 9.26859C28.9853 9.31407 29.0592 9.35736 29.085 9.37282L30.114 7.65784C30.0549 7.62238 30.0657 7.62808 30.0826 7.64007C30.1086 7.65863 30.2199 7.73956 30.3116 7.89334C30.406 8.05149 30.4244 8.19348 30.4289 8.23559C30.4314 8.25937 30.4313 8.2794 30.4294 8.20776L28.4301 8.26037ZM29.0992 9.38119C29.1492 9.41007 29.1783 9.42765 29.197 9.43964C29.214 9.45052 29.2156 9.45243 29.2102 9.44816C29.1934 9.43476 29.1902 9.42639 29.2414 9.48545L30.7528 8.17561C30.6779 8.08919 30.5851 7.98626 30.4555 7.88315C30.3362 7.78819 30.2118 7.71422 30.0998 7.64947L29.0992 9.38119ZM29.245 9.48958C29.5445 9.83136 29.7847 10.2824 29.9345 10.8303L31.8637 10.3029C31.6449 9.50262 31.2741 8.77046 30.7492 8.17148L29.245 9.48958ZM29.9397 10.8487C29.9625 10.9261 30.0007 11.041 30.0736 11.1657C30.1442 11.2863 30.2224 11.3722 30.2589 11.412L31.7332 10.0606C31.7164 10.0422 31.7582 10.0845 31.7997 10.1554C31.8435 10.2303 31.8599 10.2895 31.8584 10.2844L29.9397 10.8487ZM30.2673 11.4211C30.4292 11.5933 30.684 12.1214 30.8424 13.1232L32.8178 12.8108C32.6465 11.7273 32.3194 10.6842 31.7248 10.0515L30.2673 11.4211ZM30.8404 13.1099C30.8982 13.5101 30.9386 13.9195 30.9567 14.4693L32.9557 14.4033C32.935 13.7795 32.8881 13.2967 32.8199 12.824L30.8404 13.1099ZM30.9573 14.4839C30.9656 14.6583 30.9771 14.9507 30.9898 15.0839L32.9808 14.8943C32.9741 14.8239 32.9662 14.6217 32.9551 14.3887L30.9573 14.4839ZM30.9871 15.049C30.9991 15.2496 30.9995 15.8661 30.9867 16.1043L32.9839 16.2113C33.0002 15.9063 33.0006 15.2136 32.9835 14.9292L30.9871 15.049ZM30.9874 16.0927C30.8665 17.9474 30.2665 18.9736 29.5225 19.4244L30.559 21.1349C32.1039 20.1988 32.8423 18.3834 32.9832 16.2229L30.9874 16.0927ZM29.5153 19.4289C29.3013 19.561 29.0295 19.6673 28.7094 19.7298L29.093 21.6927C29.6167 21.5904 30.1208 21.4056 30.5663 21.1305L29.5153 19.4289ZM28.7131 19.7291C28.5709 19.7563 28.3685 19.7743 28.0671 19.7743V21.7743C28.435 21.7743 28.7757 21.7535 29.0893 21.6934L28.7131 19.7291ZM28.0671 19.7743C28.0738 19.7743 28.0612 19.7743 28.0154 19.7724C27.9756 19.7708 27.9214 19.7682 27.854 19.7646C27.7194 19.7575 27.5371 19.7466 27.3201 19.7318C26.8858 19.7021 26.3181 19.6569 25.7209 19.5953L25.5157 21.5847C26.7457 21.7116 27.8831 21.7743 28.0671 21.7743V19.7743ZM25.7244 19.5957C25.3086 19.5513 24.8746 19.4927 24.4414 19.4351C24.0166 19.3786 23.5868 19.3223 23.2103 19.2885L23.0317 21.2805C23.3583 21.3098 23.7455 21.3602 24.1778 21.4176C24.6017 21.474 25.0649 21.5366 25.5122 21.5844L25.7244 19.5957ZM23.2145 19.2889C22.7515 19.2454 22.5207 19.2471 22.2715 19.305C22.2287 19.315 22.2434 19.3117 22.2464 19.3111C22.2595 19.3087 22.2679 19.308 22.2661 19.3082C22.2524 19.3091 22.1867 19.312 22.0095 19.301L21.8855 21.2971C22.0986 21.3104 22.2651 21.3132 22.4075 21.3032C22.5747 21.2913 22.6868 21.2618 22.7242 21.2531C22.7299 21.2518 22.7163 21.2551 22.6982 21.2574C22.6821 21.2595 22.6774 21.2589 22.6914 21.2587C22.7277 21.2582 22.82 21.2606 23.0275 21.2801L23.2145 19.2889ZM22.0129 19.3012C21.6444 19.277 21.3883 19.2219 21.058 19.1571C20.7184 19.0905 20.33 19.0208 19.8 19.0178L19.7889 21.0178C20.1317 21.0197 20.3761 21.0615 20.673 21.1197C20.9792 21.1798 21.3631 21.2629 21.882 21.2969L22.0129 19.3012ZM19.7983 19.0178C18.4943 19.0127 17.6811 19.0569 16.2738 19.0229L16.2255 21.0224C17.6308 21.0563 18.6215 21.0132 19.7905 21.0178L19.7983 19.0178ZM16.2715 19.0229C15.2386 19.0003 14.2131 19.3741 14.2834 19.3593L14.6954 21.3164C15.1342 21.224 15.4859 21.0062 16.2278 21.0224L16.2715 19.0229ZM14.2851 19.359C13.7472 19.4712 13.1725 19.565 12.7986 19.599L12.9797 21.5908C13.4593 21.5472 14.1163 21.4373 14.6937 21.3168L14.2851 19.359ZM12.8083 19.5981C12.6622 19.61 12.5799 19.6138 12.3867 19.6096L12.3442 21.6092C12.6068 21.6148 12.7572 21.6089 12.97 21.5916L12.8083 19.5981ZM12.4259 19.6113C12.2318 19.5995 11.8447 19.5949 11.5653 19.5949V21.5949C11.8485 21.5949 12.1791 21.6 12.305 21.6076L12.4259 19.6113ZM11.5653 19.5949C11.2941 19.5949 11.1673 19.5921 11.0686 19.5845C10.9801 19.5777 10.9002 19.566 10.721 19.5334L10.3633 21.5012C10.8117 21.5827 10.986 21.5949 11.5653 21.5949V19.5949ZM10.7111 19.5317C10.5882 19.5106 10.2901 19.4387 10.1506 19.3961L9.56619 21.3088C9.77592 21.3728 10.1567 21.4658 10.3732 21.5029L10.7111 19.5317ZM10.1498 19.3958C9.55063 19.2133 8.88494 18.8566 8.3344 18.4054L7.06665 19.9523C7.806 20.5583 8.70174 21.0454 9.567 21.309L10.1498 19.3958ZM8.32887 18.4009C8.15854 18.2634 7.98814 18.1475 7.78373 18.0354L6.82205 19.789C6.91829 19.8418 6.99035 19.8907 7.07218 19.9568L8.32887 18.4009ZM7.80891 18.0497C7.48631 17.8604 7.35071 17.7502 7.24631 17.6406L5.79803 19.0199C6.08156 19.3176 6.39209 19.5372 6.79687 19.7747L7.80891 18.0497ZM7.25136 17.646C7.15825 17.5467 7.14813 17.5089 7.15383 17.5239C7.15743 17.5334 7.16188 17.5496 7.16361 17.569C7.16529 17.5878 7.16338 17.598 7.16386 17.5952L5.19189 17.2614C5.07018 17.9807 5.35982 18.553 5.79298 19.0146L7.25136 17.646ZM7.16427 17.5927C7.1664 17.5799 7.20171 17.4097 7.17874 17.2167C7.15736 17.0371 7.09132 16.886 7.08211 16.8629L5.22515 17.6057C5.2351 17.6306 5.23153 17.6229 5.2258 17.6054C5.21812 17.5821 5.20159 17.5273 5.19277 17.4532C5.18358 17.3759 5.18692 17.3133 5.19044 17.2773C5.19285 17.2528 5.19608 17.2363 5.19148 17.2639L7.16427 17.5927ZM7.07831 16.8536C7.07592 16.8478 7.07795 16.8522 7.08139 16.8627C7.08522 16.8743 7.08897 16.8877 7.09197 16.9013C7.09479 16.9141 7.09571 16.9215 7.09557 16.9204C7.09532 16.9185 7.09423 16.9094 7.09271 16.8889L5.09817 17.0366C5.1141 17.2517 5.14731 17.4168 5.22895 17.6151L7.07831 16.8536ZM7.08897 16.8492L7.06958 16.6795L5.08251 16.9066L5.10191 17.0763L7.08897 16.8492ZM6.76141 16.0648L6.67898 15.9873L5.30824 17.4436L5.39067 17.5212L6.76141 16.0648ZM6.68584 15.9938C6.51143 15.8265 6.49846 15.7604 6.50556 15.7828L4.5991 16.3873C4.73227 16.8073 5.00056 17.1486 5.30138 17.4371L6.68584 15.9938ZM6.50101 15.7688L6.47677 15.6961L4.5794 16.3285L4.60364 16.4013L6.50101 15.7688ZM5.70388 15.0279L5.43232 14.9794L5.08074 16.9482L5.35229 16.9967L5.70388 15.0279ZM5.43695 14.9802C4.70337 14.8457 3.97804 14.5912 3.49576 14.3206L2.51724 16.0649C3.22786 16.4636 4.17066 16.7813 5.0761 16.9474L5.43695 14.9802ZM3.48843 14.3166C3.16989 14.1414 2.95505 13.9806 2.75677 13.7859L1.35535 15.2128C1.70017 15.5515 2.06725 15.8175 2.52458 16.069L3.48843 14.3166ZM2.7573 13.7864C2.53424 13.567 2.4191 13.4048 2.30813 13.1796L0.514101 14.0636C0.73288 14.5076 0.986282 14.8498 1.35481 15.2123L2.7573 13.7864ZM2.30904 13.1815C2.22424 13.0085 2.18924 12.8999 2.15816 12.7476L0.19855 13.1475C0.264455 13.4705 0.355537 13.7401 0.513193 14.0618L2.30904 13.1815ZM2.15894 12.7515C2.14981 12.7058 2.13819 12.6475 2.12737 12.5981C2.12206 12.5738 2.1148 12.5417 2.10631 12.5092C2.10211 12.4932 2.09554 12.469 2.08676 12.4414C2.0813 12.4243 2.06119 12.3608 2.02429 12.287L0.235433 13.1814C0.22486 13.1603 0.216688 13.142 0.210779 13.1281C0.204762 13.114 0.199941 13.1017 0.196274 13.092C0.189128 13.0731 0.18409 13.0578 0.181109 13.0485C0.17797 13.0386 0.175697 13.0308 0.174303 13.0259C0.172861 13.0208 0.171856 13.0171 0.171302 13.0149C0.170268 13.011 0.170035 13.0098 0.170675 13.0126C0.17125 13.015 0.172204 13.0192 0.173571 13.0255C0.176367 13.0383 0.17985 13.0549 0.184129 13.0759C0.188379 13.0967 0.192849 13.1191 0.197774 13.1437L2.15894 12.7515ZM2.10001 12.4917C2.06829 12.3648 2.01859 12.2731 2.00212 12.2431C1.97903 12.2011 1.95699 12.1677 1.94281 12.147C1.91419 12.1052 1.88608 12.0697 1.86724 12.0466C1.82769 11.998 1.7844 11.9496 1.74829 11.9104L0.278673 13.267C0.288703 13.2779 0.297473 13.2876 0.304591 13.2957C0.308099 13.2997 0.310886 13.3029 0.31298 13.3054C0.31401 13.3066 0.314793 13.3075 0.315344 13.3082C0.315899 13.3088 0.316145 13.3091 0.316109 13.3091C0.316078 13.3091 0.315655 13.3085 0.314884 13.3076C0.314124 13.3066 0.312851 13.305 0.311146 13.3027C0.308196 13.2989 0.30156 13.29 0.292823 13.2773C0.285231 13.2662 0.268614 13.2414 0.24959 13.2068C0.239797 13.189 0.225983 13.1625 0.211447 13.1291C0.197797 13.0977 0.176782 13.045 0.15972 12.9767L2.10001 12.4917ZM1.7273 11.8884C1.56025 11.7181 1.33626 11.4007 1.19023 11.1086L-0.598629 12.003C-0.376116 12.4481 -0.037603 12.9453 0.299668 13.2891L1.7273 11.8884ZM1.19372 11.1157C1.0089 10.7386 0.983517 10.4749 1.00426 10.3314L-0.975162 10.0452C-1.0708 10.7068 -0.902215 11.3838 -0.602122 11.996L1.19372 11.1157ZM1.00094 10.3527C1.01835 10.2483 1.036 10.1871 1.11935 10.0482L-0.59564 9.01919C-0.803241 9.36519 -0.911669 9.66286 -0.971846 10.0239L1.00094 10.3527ZM1.13602 10.0193L1.16026 9.97567L-0.588058 9.00439L-0.612304 9.04804L1.13602 10.0193ZM1.09251 8.89867L1.03917 8.82593L-0.573648 10.0086L-0.520307 10.0814L1.09251 8.89867ZM1.01765 8.79765C1.01979 8.80036 1.02358 8.80547 1.02807 8.81255C1.03258 8.81968 1.0363 8.82644 1.03903 8.83196C1.04435 8.84275 1.04205 8.84106 1.03337 8.81286L-0.878193 9.40102C-0.813494 9.61129 -0.720759 9.82333 -0.552126 10.0369L1.01765 8.79765ZM1.03117 8.80581C1.02836 8.79692 1.02786 8.7951 1.0282 8.79629C1.02875 8.79819 1.03076 8.80525 1.03323 8.81567C1.03579 8.82655 1.03828 8.83864 1.04041 8.85138C1.0425 8.8639 1.04376 8.87415 1.04449 8.88125C1.04573 8.89339 1.04513 8.89382 1.04454 8.87044C1.04396 8.84728 1.04364 8.81301 1.04364 8.75779H-0.956357C-0.956357 8.86229 -0.956044 8.97838 -0.945077 9.08531C-0.929999 9.23232 -0.898197 9.33776 -0.875997 9.40807L1.03117 8.80581ZM1.04342 8.77906C1.0447 8.71894 1.04547 8.6814 1.04644 8.65146C1.0474 8.62212 1.04813 8.61567 1.04783 8.61886C1.04712 8.62649 1.04539 8.63961 1.04259 8.65336C1.04056 8.66334 1.03975 8.6645 1.0454 8.64432L-0.880528 8.10507C-0.95259 8.36244 -0.951382 8.51334 -0.956131 8.73652L1.04342 8.77906ZM1.04867 8.63236C1.09615 8.45433 1.19267 8.22976 1.34478 7.97357L-0.374938 6.9525C-0.591367 7.31702 -0.776098 7.71315 -0.883799 8.11704L1.04867 8.63236ZM1.32974 7.99808C1.4616 7.78989 1.53413 7.64073 1.60667 7.41504L-0.297388 6.80303C-0.304855 6.82626 -0.309194 6.8383 -0.311583 6.84456C-0.313538 6.84968 -0.314279 6.85117 -0.314518 6.85167C-0.315404 6.85353 -0.323256 6.87012 -0.359903 6.92799L1.32974 7.99808ZM1.60399 7.42325C1.79498 6.84621 2.07905 6.37956 2.35516 6.10015L0.932594 4.69434C0.394046 5.23931 -0.0298735 5.99466 -0.294709 6.79482L1.60399 7.42325ZM2.35099 6.10434C2.44655 6.00878 2.55763 5.92304 2.61905 5.88619L1.59005 4.17121C1.36052 4.30893 1.12245 4.50445 0.936765 4.69014L2.35099 6.10434ZM2.60428 5.89488C2.69954 5.83992 2.78418 5.77031 2.81342 5.74645C2.86169 5.70706 2.91491 5.66128 2.96827 5.61422C3.07595 5.51926 3.20426 5.40139 3.33266 5.28027C3.5766 5.05014 3.87238 4.75981 4.02762 4.5787L2.5091 3.27713C2.43157 3.36757 2.20849 3.59127 1.96024 3.82546C1.84254 3.93649 1.73143 4.03835 1.64544 4.11418C1.60197 4.15252 1.56979 4.17989 1.549 4.19686C1.50918 4.22935 1.54109 4.19929 1.60482 4.16252L2.60428 5.89488ZM4.02056 4.58685C4.49247 4.04815 4.98127 3.6125 5.37672 3.34754L4.26348 1.68601C3.6891 2.07085 3.07228 2.63415 2.51616 3.26897L4.02056 4.58685ZM5.3717 3.35088C5.8789 3.01547 6.078 3.03693 6.13836 3.04953L6.54714 1.09175C5.72494 0.920079 4.9639 1.2228 4.2685 1.68266L5.3717 3.35088ZM6.10021 3.04078C6.15672 3.05491 6.30138 3.08805 6.48536 3.0665C6.67564 3.04422 6.82024 2.97482 6.9112 2.92025C7.03674 2.84492 7.15046 2.73667 7.16884 2.72003L5.827 1.23697C5.81509 1.24775 5.80658 1.25539 5.80006 1.26118C5.79339 1.2671 5.7913 1.26884 5.79214 1.26813C5.79269 1.26767 5.80036 1.26119 5.81299 1.25168C5.8253 1.24242 5.84919 1.22508 5.88219 1.20527C5.95193 1.16342 6.07926 1.10039 6.25272 1.08008C6.41988 1.0605 6.54817 1.09122 6.58529 1.1005L6.10021 3.04078ZM7.1706 2.71844C7.46654 2.4494 7.80963 2.21761 8.24473 2.00006L7.35029 0.211209C6.77675 0.497984 6.27608 0.82871 5.82524 1.23857L7.1706 2.71844ZM8.23987 2.00247C8.84418 1.70439 9.45254 1.53508 10.1392 1.48195L9.98493 -0.512093C9.04229 -0.43915 8.1862 -0.201121 7.35514 0.208798L8.23987 2.00247ZM10.1451 1.48147C10.4278 1.45791 10.916 1.46671 11.194 1.50145L11.4421 -0.483105C11.0217 -0.535647 10.3946 -0.546252 9.97903 -0.51162L10.1451 1.48147ZM11.1829 1.5C11.1989 1.50218 11.374 1.53337 11.5682 1.50618C11.7371 1.48254 11.8899 1.41809 11.9146 1.40857L11.1966 -0.458116C11.1608 -0.444316 11.159 -0.443957 11.1652 -0.446008C11.1763 -0.449707 11.2237 -0.465088 11.2909 -0.474501C11.3637 -0.484697 11.423 -0.482901 11.4561 -0.480454C11.4758 -0.479001 11.4886 -0.476816 11.4531 -0.481657L11.1829 1.5ZM11.9123 1.40944C12.1149 1.33211 12.3807 1.25792 12.6718 1.19707L12.2627 -0.760642C11.9041 -0.685704 11.5298 -0.585321 11.1989 -0.458989L11.9123 1.40944ZM12.6727 1.19689C12.9919 1.12989 13.2291 1.10544 13.6332 1.09675L13.5902 -0.902785C13.0923 -0.892077 12.7282 -0.858333 12.2619 -0.760461L12.6727 1.19689ZM13.6361 1.09669C13.9802 1.08829 14.2199 1.10499 14.4853 1.1505L14.8232 -0.820748C14.4098 -0.891628 14.0385 -0.913723 13.5873 -0.902719L13.6361 1.09669ZM14.5022 1.15325L14.6913 1.18234L14.9954 -0.794402L14.8063 -0.823497L14.5022 1.15325ZM15.0859 1.16411L15.1829 1.13986L14.6978 -0.800418L14.6008 -0.776172L15.0859 1.16411ZM15.1995 1.13556C15.6722 1.00874 16.2327 0.969133 16.7182 1.02693L16.9546 -0.959045C16.2181 -1.04672 15.4014 -0.989346 14.6812 -0.796119L15.1995 1.13556ZM16.7241 1.02761C17.1637 1.07731 17.568 1.19823 17.9617 1.39701L18.8631 -0.388361C18.2579 -0.693905 17.6245 -0.88334 16.9487 -0.959728L16.7241 1.02761ZM17.953 1.39254L18.0936 1.46528L19.0125 -0.311152L18.8718 -0.383891L17.953 1.39254ZM18.6464 1.5727L18.8015 1.55815L18.6149 -0.43312L18.4597 -0.418572L18.6464 1.5727ZM18.7912 1.55906C18.9809 1.54326 19.4506 1.56368 19.7997 1.61836L20.1092 -0.357551C19.6533 -0.428948 19.0174 -0.46672 18.6252 -0.434031L18.7912 1.55906ZM19.7885 1.61655C20.23 1.69081 20.7724 1.85573 21.1172 2.01666L21.963 0.204302C21.435 -0.0421037 20.7166 -0.255429 20.1203 -0.355739L19.7885 1.61655ZM21.0929 2.00491C21.2953 2.10612 21.492 2.15217 21.6074 2.17985L22.0742 0.235082C22.0458 0.228284 22.0247 0.223079 22.007 0.218474C21.9896 0.213945 21.979 0.210878 21.9726 0.208909C21.9612 0.205384 21.9699 0.207351 21.9873 0.216058L21.0929 2.00491ZM21.6418 2.18748C22.2129 2.30341 22.8502 2.50927 23.3896 2.74169L24.181 0.904958C23.5275 0.623355 22.7585 0.373386 22.0397 0.227459L21.6418 2.18748ZM23.3839 2.73921C24.4038 3.18626 25.0992 3.75368 25.4822 4.33356L27.151 3.23131C26.4963 2.24002 25.4459 1.45934 24.1867 0.90744L23.3839 2.73921ZM25.4729 4.3193C25.593 4.50796 25.7327 4.66507 25.8613 4.79923L27.3053 3.41544C27.2108 3.31683 27.176 3.27028 27.1603 3.24556L25.4729 4.3193ZM25.8573 4.79507C25.9048 4.84523 25.9506 4.89312 25.9938 4.93917C26.0147 4.96148 26.0318 4.98002 26.045 4.99453C26.0604 5.01147 26.0622 5.01402 26.0566 5.00728L27.6046 3.74081C27.5306 3.65036 27.3725 3.48631 27.3093 3.4196L25.8573 4.79507ZM26.07 5.0233C26.1129 5.07356 26.1545 5.13327 26.186 5.18858C26.2013 5.2154 26.2113 5.236 26.2168 5.2488C26.223 5.26324 26.2199 5.25894 26.2144 5.23728L28.1547 4.75222C28.0609 4.37674 27.8204 3.99334 27.5912 3.72479L26.07 5.0233ZM26.2144 5.23728C26.2247 5.27839 26.2347 5.31484 26.2419 5.34066C26.2456 5.35381 26.2488 5.36479 26.2512 5.37295C26.2524 5.37704 26.2534 5.38045 26.2542 5.38311C26.2546 5.38444 26.2549 5.38558 26.2552 5.38653C26.2553 5.387 26.2555 5.38743 26.2556 5.3878C26.2556 5.38799 26.2557 5.38817 26.2557 5.38833C26.2557 5.38841 26.2558 5.38849 26.2558 5.38856C26.2558 5.3886 26.2558 5.38864 26.2558 5.38867C26.2558 5.38869 26.2558 5.38872 26.2558 5.38873C26.2559 5.38875 26.2559 5.38878 27.2137 5.10144C28.1715 4.81409 28.1715 4.81412 28.1715 4.81414C28.1715 4.81415 28.1715 4.81418 28.1715 4.81419C28.1716 4.81423 28.1716 4.81426 28.1716 4.81429C28.1716 4.81435 28.1716 4.81441 28.1716 4.81447C28.1717 4.81459 28.1717 4.81469 28.1717 4.81479C28.1718 4.81498 28.1718 4.81512 28.1719 4.81523C28.1719 4.81543 28.1719 4.81548 28.1719 4.81537C28.1718 4.81515 28.1716 4.81432 28.1712 4.81295C28.1704 4.8102 28.169 4.80542 28.1672 4.79917C28.1636 4.7862 28.159 4.76931 28.1547 4.75222L26.2144 5.23728ZM27.2137 6.10144C27.1356 6.10144 27.0731 6.09221 27.0361 6.08552C26.9965 6.07837 26.9642 6.07005 26.9422 6.0638C26.8992 6.05165 26.866 6.0391 26.849 6.03238C26.8142 6.01871 26.7884 6.00616 26.7797 6.00195C26.7681 5.99627 26.7593 5.9917 26.7553 5.98955C26.7507 5.98713 26.7475 5.98537 26.7462 5.98468C26.7446 5.98382 26.7464 5.98478 26.7624 5.99392C26.7871 6.00803 26.8328 6.03423 26.8837 6.06137L27.8249 4.29668C27.8031 4.28503 27.7809 4.27243 27.7547 4.25744C27.7452 4.25204 27.7258 4.24087 27.7087 4.23153C27.7015 4.22756 27.6813 4.21646 27.6566 4.20441C27.6456 4.19906 27.6178 4.18564 27.5816 4.17138C27.5637 4.16437 27.53 4.1516 27.4865 4.1393C27.4586 4.1314 27.3529 4.10144 27.2137 4.10144V6.10144Z" fill="black" mask="url(#path-1-inside-1_3_7)"/>
<path d="M18.6429 3.69015C18.6635 3.6232 18.6707 3.55285 18.6641 3.48312C18.6575 3.41339 18.6372 3.34564 18.6044 3.28374C18.5716 3.22184 18.527 3.16701 18.473 3.12237C18.419 3.07773 18.3568 3.04415 18.2899 3.02356C18.2229 3.00297 18.1526 2.99577 18.0828 3.00237C18.0131 3.00897 17.9454 3.02924 17.8835 3.06202C17.8216 3.0948 17.7667 3.13945 17.7221 3.19343C17.6774 3.2474 17.6439 3.30964 17.6233 3.37659L13.3571 17.2416C13.3155 17.3768 13.3294 17.523 13.3956 17.648C13.4618 17.773 13.5749 17.8666 13.7101 17.9082C13.8453 17.9498 13.9915 17.9359 14.1165 17.8697C14.2416 17.8035 14.3351 17.6904 14.3767 17.5552L18.6429 3.69015V3.69015ZM12.6447 6.35543C12.6943 6.40497 12.7337 6.46382 12.7606 6.5286C12.7875 6.59339 12.8013 6.66284 12.8013 6.73299C12.8013 6.80313 12.7875 6.87259 12.7606 6.93737C12.7337 7.00216 12.6943 7.06101 12.6447 7.11054L9.28827 10.4659L12.6447 13.8212C12.7448 13.9213 12.8011 14.0572 12.8011 14.1988C12.8011 14.3404 12.7448 14.4762 12.6447 14.5763C12.5445 14.6765 12.4087 14.7327 12.2671 14.7327C12.1255 14.7327 11.9897 14.6765 11.8896 14.5763L8.15667 10.8434C8.10701 10.7939 8.06761 10.735 8.04072 10.6703C8.01384 10.6055 8 10.536 8 10.4659C8 10.3957 8.01384 10.3263 8.04072 10.2615C8.06761 10.1967 8.10701 10.1379 8.15667 10.0883L11.8896 6.35543C11.9391 6.30577 11.9979 6.26637 12.0627 6.23949C12.1275 6.2126 12.197 6.19876 12.2671 6.19876C12.3373 6.19876 12.4067 6.2126 12.4715 6.23949C12.5363 6.26637 12.5951 6.30577 12.6447 6.35543V6.35543ZM19.3553 6.35543C19.3057 6.40497 19.2663 6.46382 19.2394 6.5286C19.2125 6.59339 19.1987 6.66284 19.1987 6.73299C19.1987 6.80313 19.2125 6.87259 19.2394 6.93737C19.2663 7.00216 19.3057 7.06101 19.3553 7.11054L22.7117 10.4659L19.3553 13.8212C19.3058 13.8708 19.2664 13.9297 19.2396 13.9944C19.2128 14.0592 19.1989 14.1286 19.1989 14.1988C19.1989 14.2689 19.2128 14.3383 19.2396 14.4031C19.2664 14.4679 19.3058 14.5267 19.3553 14.5763C19.4049 14.6259 19.4638 14.6652 19.5286 14.6921C19.5933 14.7189 19.6628 14.7327 19.7329 14.7327C19.803 14.7327 19.8724 14.7189 19.9372 14.6921C20.002 14.6652 20.0609 14.6259 20.1104 14.5763L23.8433 10.8434C23.893 10.7939 23.9324 10.735 23.9593 10.6703C23.9862 10.6055 24 10.536 24 10.4659C24 10.3957 23.9862 10.3263 23.9593 10.2615C23.9324 10.1967 23.893 10.1379 23.8433 10.0883L20.1104 6.35543C20.0609 6.30577 20.0021 6.26637 19.9373 6.23949C19.8725 6.2126 19.803 6.19876 19.7329 6.19876C19.6627 6.19876 19.5933 6.2126 19.5285 6.23949C19.4637 6.26637 19.4049 6.30577 19.3553 6.35543V6.35543Z" fill="black"/>
</g>
<defs>
<clipPath id="clip0_3_7">
<rect width="32" height="20.7741" fill="white"/>
</clipPath>
</defs>
</svg>
